<svg xmlns="http://www.w3.org/2000/svg" viewBox="0 0 1500 1500">
  <defs>
    <style>.cls-1{fill:#f8f5ea;}</style>
  </defs>
  <g id="Logo_Icon_White" data-name="Logo Icon White">
    <circle class="cls-1" cx="750" cy="749.99" r="248.62" />
    <path class="cls-1"
      d="M998.62,501.37H501.38c0-137.3,111.28-248.62,248.62-248.62S998.62,364.07,998.62,501.37Z" />
    <path class="cls-1"
      d="M998.62,252.76H501.38C557.13,190.51,647.72,150,750,150S942.87,190.51,998.62,252.76Z" />
    <path class="cls-1"
      d="M501.38,1247.24H998.62C942.87,1309.49,852.28,1350,750,1350S557.13,1309.49,501.38,1247.24Z" />
    <path class="cls-1"
      d="M1247.24,998.62V501.38C1309.49,557.13,1350,647.72,1350,750S1309.49,942.87,1247.24,998.62Z" />
    <path class="cls-1"
      d="M252.76,501.38V998.62C190.51,942.87,150,852.28,150,750S190.51,557.13,252.76,501.38Z" />
    <path class="cls-1"
      d="M501.38,998.61H998.62c0,137.31-111.28,248.63-248.62,248.63S501.38,1135.92,501.38,998.61Z" />
    <path class="cls-1"
      d="M998.62,998.61V501.37c137.31,0,248.62,111.28,248.62,248.62S1135.93,998.61,998.62,998.61Z" />
    <path class="cls-1"
      d="M501.38,501.37V998.61c-137.31,0-248.62-111.28-248.62-248.62S364.07,501.37,501.38,501.37Z" />
    <path class="cls-1"
      d="M1247.24,501.37H998.62V252.75C1135.93,252.75,1247.24,364.07,1247.24,501.37Z" />
    <path class="cls-1"
      d="M998.62,1247.24V998.61h248.62C1247.24,1135.92,1135.93,1247.24,998.62,1247.24Z" />
    <path class="cls-1"
      d="M252.76,998.61H501.38v248.63C364.07,1247.24,252.76,1135.92,252.76,998.61Z" />
    <path class="cls-1" d="M501.38,252.75V501.37H252.76C252.76,364.07,364.07,252.75,501.38,252.75Z" />
  </g>
</svg>
