<svg xmlns="http://www.w3.org/2000/svg" viewBox="0 0 1500 619.44"><defs><style>.cls-1{fill:#2d2d2c;}</style></defs><g id="Full_Logo_Horisontal_Lockup_White-2" data-name="Full Logo Horisontal Lockup White"><path class="cls-1" d="M1296.51,285.2h1.37l11.28,38.22h-23.93ZM1274.78,359l4.68-15h35.33l4.68,15h29.84l-30.8-98.44h-42.63L1245,359Zm-46.89,0L1257,260.59h-30l-21,77.13h-1.37l-21.31-77.13h-29.7l29,98.44Zm-83.46-98.44h-29V359h29Zm-69,98.44V284.37h30.8V260.59H1015.6v23.78h30.8V359ZM975.31,285.2h1.38L988,323.42H964ZM953.59,359l4.67-15H993.6l4.67,15h29.84l-30.8-98.44H954.69L923.75,359ZM857.2,281.49h15.54c9.21,0,16.09,4.95,16.09,13.06s-6.88,13.2-16.09,13.2H857.2Zm0,77.54V326.59h7L888.69,359H921l-29-34.64,1.1-.28c14.3-2.61,24.75-13.89,24.75-30,0-20.08-16-33.55-40-33.55H828.19V359Zm-40.83,0V336.21H767.28V318.75h45.1V299.91h-45.1v-16.5H815V260.59H739.23V359ZM672.68,281.49h13.48c9.76,0,16.22,5.5,16.22,14s-6.46,14-16.22,14H672.68Zm0,77.54V330.44h16.5c26,0,42.21-13.75,42.21-34.93s-16.08-34.92-41.93-34.92H643.81V359Zm-93.36-21.72c-15.54,0-26.26-10.86-26.26-27.5s10.72-27.5,26.26-27.5,26.12,11,26.12,27.5-10.58,27.5-26.12,27.5m0,23.79c32.86,0,55.14-19.94,55.14-51.29s-22.28-51.15-55.14-51.15-55.27,19.8-55.27,51.15,22.27,51.29,55.27,51.29"/><circle class="cls-1" cx="310.42" cy="309.72" r="66.18"/><path class="cls-1" d="M376.6,243.54H244.23a66.19,66.19,0,1,1,132.37,0Z"/><path class="cls-1" d="M376.6,177.36H244.23c14.84-16.58,39-27.36,66.19-27.36S361.76,160.78,376.6,177.36Z"/><path class="cls-1" d="M244.23,442.09H376.6c-14.84,16.57-39,27.35-66.19,27.35S259.07,458.66,244.23,442.09Z"/><path class="cls-1" d="M442.78,375.9V243.54c16.57,14.84,27.36,39,27.36,66.19S459.35,361.06,442.78,375.9Z"/><path class="cls-1" d="M178.05,243.54V375.9c-16.57-14.84-27.36-38.95-27.36-66.18S161.48,258.38,178.05,243.54Z"/><path class="cls-1" d="M244.23,375.9H376.6a66.19,66.19,0,1,1-132.37,0Z"/><path class="cls-1" d="M376.6,375.9V243.54a66.18,66.18,0,0,1,0,132.36Z"/><path class="cls-1" d="M244.23,243.54V375.9a66.18,66.18,0,1,1,0-132.36Z"/><path class="cls-1" d="M442.78,243.54H376.6V177.35A66.18,66.18,0,0,1,442.78,243.54Z"/><path class="cls-1" d="M376.6,442.09V375.9h66.18A66.19,66.19,0,0,1,376.6,442.09Z"/><path class="cls-1" d="M178.05,375.9h66.18v66.19A66.19,66.19,0,0,1,178.05,375.9Z"/><path class="cls-1" d="M244.23,177.35v66.19H178.05A66.18,66.18,0,0,1,244.23,177.35Z"/></g></svg>